<svg xmlns="http://www.w3.org/2000/svg" width="375" viewBox="0 0 375 375" height="375" version="1.0"><defs><clipPath id="a"><path d="M 136 70 L 240 70 L 240 218.316406 L 136 218.316406 Z M 136 70"/></clipPath></defs><path fill="#F8CBAE" d="M 183.421875 160.757812 C 184.3125 160.6875 190.882812 159.375 194.492188 155.890625 C 187.96875 164.222656 180.238281 169.722656 178.878906 168.738281 C 174.03125 165.300781 172.257812 162.753906 169.46875 157.792969 C 173.367188 160.390625 177.71875 161.179688 183.421875 160.757812"/><path fill="#FFF" d="M 156.910156 130.894531 C 156.359375 127.640625 156.429688 123.65625 155.597656 117.554688 L 155.570312 117.210938 C 155.125 117.285156 154.679688 117.316406 154.1875 117.316406 C 154.1875 117.316406 150.183594 116.484375 149.382812 112.355469 C 148.609375 108.203125 151.515625 90.242188 181.886719 91.3125 C 191.425781 91.671875 201.742188 98.445312 204.539062 113.734375 C 205.785156 120.375 205.582031 128.65625 203.304688 138.710938 C 201.90625 144.917969 198.429688 150.902344 194.542969 155.882812 L 194.511719 155.882812 C 188.007812 164.222656 180.285156 169.742188 178.925781 168.757812 C 174.082031 165.332031 172.296875 162.792969 169.488281 157.832031 L 169.488281 157.804688 C 168.648438 157.261719 167.808594 156.597656 166.988281 155.863281 C 166.542969 155.4375 166.097656 155.015625 165.683594 154.53125 C 159.929688 148.558594 158.117188 140.902344 156.910156 130.894531 Z M 238.226562 195.492188 C 235.984375 185.078125 222.195312 171.046875 211.210938 163.476562 C 221.074219 152.9375 224.035156 142.03125 225.726562 133.402344 C 231.84375 102.035156 222.558594 68.207031 179.570312 71.460938 C 140.195312 74.421875 141.929688 113.40625 144.875 130.527344 C 148.148438 149.570312 152.742188 159.636719 161.929688 169.953125 C 162.226562 170.292969 162.519531 170.621094 162.816406 170.9375 L 162.796875 170.957031 C 153.667969 176.882812 144.246094 187.230469 139.199219 197.867188 C 137.085938 202.316406 137.191406 206.292969 141.128906 209.160156 C 147.035156 213.445312 158.164062 217.074219 179.609375 217.035156 C 207.53125 216.976562 225.183594 208.890625 230.464844 205.519531 C 233.949219 203.292969 239.277344 200.335938 238.226562 195.492188"/><path d="M 204.597656 113.761719 C 202.542969 115.839844 199.164062 117.960938 195.730469 117.71875 C 192.738281 117.488281 188.363281 116.15625 184.339844 106.542969 C 184.339844 106.542969 185.574219 113.761719 181.472656 117.691406 C 180.558594 118.558594 177.074219 119.640625 175.613281 119.765625 C 167.507812 120.308594 163.085938 114.902344 162.816406 106.96875 C 162.894531 108.253906 162.46875 116.332031 155.625 117.152344 C 155.183594 117.21875 154.738281 117.246094 154.246094 117.246094 C 154.246094 117.246094 150.242188 116.40625 149.449219 112.277344 C 148.6875 108.125 151.621094 90.164062 181.984375 91.304688 C 191.53125 91.679688 201.828125 98.476562 204.597656 113.761719"/><path fill="#FFF" d="M 170.597656 178.101562 C 173.683594 180.300781 175.960938 181.074219 177.371094 181.34375 C 178.75 181.34375 181.25 180.601562 184.628906 179.144531 C 190.980469 176.449219 200.417969 171.191406 211.171875 163.527344 C 222.136719 171.113281 235.898438 185.164062 238.128906 195.597656 C 239.160156 200.433594 233.824219 203.378906 230.339844 205.609375 C 225.058594 208.964844 207.386719 217.015625 179.464844 217.015625 C 158.019531 217.015625 146.902344 213.359375 141.003906 209.0625 C 137.066406 206.195312 136.96875 202.21875 139.09375 197.769531 C 144.160156 187.144531 153.601562 176.816406 162.738281 170.910156 L 162.769531 170.890625 C 165.761719 174.277344 168.394531 176.574219 170.597656 178.101562"/><path fill="#F8CBAE" d="M 204.597656 113.761719 C 205.835938 120.414062 205.613281 128.683594 203.316406 138.742188 C 201.90625 144.949219 198.421875 150.921875 194.511719 155.890625 L 194.492188 155.890625 C 190.882812 159.375 184.3125 160.6875 183.421875 160.757812 C 177.71875 161.179688 173.367188 160.390625 169.46875 157.792969 L 169.46875 157.773438 C 168.628906 157.222656 167.777344 156.558594 166.96875 155.816406 C 166.523438 155.398438 166.078125 154.976562 165.65625 154.484375 C 159.921875 148.507812 158.125 140.84375 156.9375 130.835938 C 156.390625 127.574219 156.464844 123.597656 155.65625 117.488281 L 155.625 117.152344 C 162.46875 116.332031 162.894531 108.253906 162.816406 106.96875 C 163.085938 114.902344 167.507812 120.308594 175.613281 119.765625 C 177.074219 119.640625 180.558594 118.558594 181.472656 117.691406 C 185.574219 113.761719 184.339844 106.542969 184.339844 106.542969 C 188.363281 116.15625 192.738281 117.488281 195.730469 117.71875 C 199.164062 117.960938 202.542969 115.839844 204.597656 113.761719"/><path fill="#FFF" d="M 196.191406 126.601562 L 196.191406 128.617188 C 196.191406 129.957031 195.128906 131.011719 193.796875 131.011719 L 181.269531 131.011719 C 179.949219 131.011719 178.867188 129.957031 178.867188 128.617188 L 178.867188 121.8125 C 178.867188 121.148438 179.136719 120.546875 179.5625 120.113281 C 179.996094 119.679688 180.625 119.417969 181.269531 119.417969 L 193.796875 119.417969 C 195.128906 119.417969 196.191406 120.472656 196.191406 121.8125 L 196.191406 126.601562"/><path fill="#FFF" d="M 170.035156 126.601562 L 170.035156 128.617188 C 170.035156 129.957031 168.984375 131.011719 167.632812 131.011719 L 155.113281 131.011719 C 153.792969 131.011719 152.722656 129.957031 152.722656 128.617188 L 152.722656 121.8125 C 152.722656 121.148438 152.980469 120.546875 153.40625 120.113281 C 153.839844 119.679688 154.46875 119.417969 155.113281 119.417969 L 167.632812 119.417969 C 168.984375 119.417969 170.035156 120.472656 170.035156 121.8125 L 170.035156 126.601562"/><path d="M 174.148438 133.847656 Z M 174.890625 136.90625 C 174.207031 136.90625 173.519531 136.65625 172.941406 136.183594 C 172.003906 135.421875 171.511719 134.214844 171.746094 133.257812 C 171.910156 132.601562 172.566406 132.207031 173.242188 132.351562 C 173.878906 132.507812 174.28125 133.132812 174.15625 133.78125 C 174.1875 133.914062 174.371094 134.207031 174.640625 134.359375 C 174.84375 134.476562 174.976562 134.445312 175.09375 134.390625 C 175.710938 134.097656 176.445312 134.359375 176.734375 134.976562 C 177.023438 135.59375 176.753906 136.339844 176.136719 136.628906 C 175.730469 136.8125 175.316406 136.90625 174.890625 136.90625"/><path d="M 181.03125 144.648438 L 172.402344 144.648438 C 171.726562 144.648438 171.164062 144.097656 171.164062 143.414062 C 171.164062 142.726562 171.726562 142.175781 172.402344 142.175781 L 181.03125 142.175781 C 181.707031 142.175781 182.265625 142.726562 182.265625 143.414062 C 182.265625 144.097656 181.707031 144.648438 181.03125 144.648438"/><path d="M 157.652344 125.488281 C 157.507812 123.386719 157.335938 121.011719 156.976562 118.144531 C 159.941406 117.402344 161.726562 115.375 162.757812 113.175781 C 163.511719 115.105469 164.601562 116.734375 166.019531 118.019531 C 168.210938 120 171.136719 121.039062 174.542969 121.039062 C 174.929688 121.039062 175.316406 121.019531 175.722656 121.003906 C 177.246094 120.867188 181.078125 119.765625 182.324219 118.578125 C 184.351562 116.640625 185.21875 114.042969 185.554688 111.746094 C 189.175781 117.703125 192.929688 118.742188 195.640625 118.957031 C 198.992188 119.167969 201.875 117.539062 203.710938 116.148438 C 204.550781 122.605469 204.019531 130.09375 202.109375 138.472656 C 200.613281 145.082031 196.722656 151.058594 193.671875 154.964844 C 193.664062 154.976562 193.652344 154.984375 193.644531 154.996094 C 193.644531 155.003906 193.632812 155.003906 193.632812 155.003906 C 190.304688 158.21875 184.089844 159.464844 183.335938 159.519531 C 177.671875 159.945312 173.734375 159.125 170.210938 156.800781 C 170.191406 156.789062 170.179688 156.769531 170.171875 156.761719 C 170.160156 156.761719 170.160156 156.761719 170.160156 156.761719 C 170.152344 156.75 170.152344 156.742188 170.132812 156.730469 C 169.390625 156.25 168.597656 155.632812 167.816406 154.917969 C 167.402344 154.53125 166.988281 154.136719 166.550781 153.625 C 161.167969 148.007812 159.351562 140.679688 158.15625 130.632812 C 157.90625 129.148438 157.789062 127.449219 157.652344 125.488281 Z M 150.664062 112.054688 C 150.414062 110.675781 150.597656 105.683594 154.640625 100.996094 C 158.261719 96.804688 165.945312 91.941406 181.945312 92.539062 C 189.984375 92.847656 200.285156 98.515625 203.238281 113.339844 C 201.367188 115.066406 198.558594 116.714844 195.824219 116.484375 C 192.949219 116.273438 189.175781 114.894531 185.480469 106.070312 C 185.238281 105.492188 184.589844 105.183594 183.992188 105.367188 C 183.394531 105.539062 183.019531 106.140625 183.125 106.757812 C 183.132812 106.824219 184.1875 113.378906 180.625 116.792969 C 180.027344 117.355469 176.917969 118.414062 175.527344 118.53125 C 172.296875 118.761719 169.640625 117.960938 167.671875 116.1875 C 165.480469 114.207031 164.234375 111.082031 164.0625 107.140625 C 164.0625 107.066406 164.050781 106.976562 164.050781 106.902344 C 164.015625 106.226562 163.40625 105.628906 162.757812 105.734375 C 162.082031 105.761719 161.5625 106.332031 161.582031 107.007812 C 161.582031 107.027344 161.582031 107.046875 161.582031 107.066406 C 161.589844 107.585938 161.582031 115.191406 155.425781 115.933594 C 155.085938 115.984375 154.738281 116.003906 154.363281 116.003906 C 153.773438 115.839844 151.226562 114.96875 150.664062 112.054688 Z M 172.671875 160.738281 C 175.046875 161.625 177.640625 162.097656 180.710938 162.097656 C 181.609375 162.097656 182.542969 162.058594 183.53125 161.992188 C 184.089844 161.945312 186.191406 161.546875 188.625 160.667969 C 184.261719 165.050781 180.527344 167.453125 179.417969 167.609375 C 176.15625 165.273438 174.378906 163.351562 172.671875 160.738281 Z M 166.136719 156.730469 C 166.9375 157.457031 167.730469 158.074219 168.5 158.59375 C 171.242188 163.460938 173.144531 166.191406 178.152344 169.734375 C 178.441406 169.953125 178.800781 170.050781 179.226562 170.050781 C 182.785156 170.050781 190.535156 162.898438 195.332031 156.820312 C 195.390625 156.761719 195.4375 156.710938 195.488281 156.65625 C 198.710938 152.554688 202.898438 146.164062 204.511719 139.019531 C 206.722656 129.359375 207.15625 120.789062 205.816406 113.542969 C 202.785156 96.785156 191.105469 90.425781 182.035156 90.070312 C 165.046875 89.449219 156.746094 94.777344 152.769531 99.382812 C 148.5625 104.246094 147.75 109.902344 148.234375 112.519531 C 149.167969 117.390625 153.792969 118.414062 153.984375 118.453125 C 154.035156 118.464844 154.074219 118.453125 154.121094 118.453125 C 154.160156 118.464844 154.199219 118.484375 154.246094 118.484375 C 154.34375 118.484375 154.421875 118.464844 154.527344 118.464844 C 154.875 121.261719 155.046875 123.597656 155.183594 125.664062 C 155.328125 127.679688 155.453125 129.4375 155.703125 130.980469 C 156.949219 141.484375 158.910156 149.222656 164.71875 155.285156 C 165.171875 155.816406 165.644531 156.269531 166.136719 156.730469"/><g clip-path="url(#a)"><path d="M 230.445312 204.082031 L 229.683594 204.554688 C 223.121094 208.726562 205.167969 215.78125 179.464844 215.78125 C 161.457031 215.78125 148.765625 213.183594 141.730469 208.070312 C 138.601562 205.78125 138.117188 202.683594 140.214844 198.300781 C 144.828125 188.621094 153.550781 178.621094 162.59375 172.523438 C 164.796875 174.925781 166.96875 176.933594 169.070312 178.496094 C 166.058594 185.28125 161.660156 200.636719 161.660156 203.753906 C 161.660156 204.429688 162.210938 204.988281 162.894531 204.988281 C 163.570312 204.988281 164.128906 204.429688 164.128906 203.753906 C 164.128906 201.195312 168.144531 186.855469 171.128906 179.925781 C 173.28125 181.296875 175.324219 182.203125 177.371094 182.578125 C 178.695312 182.578125 180.738281 182.019531 183.402344 180.96875 C 183.5 187.53125 184.765625 196.050781 185.554688 201.339844 C 185.902344 203.675781 186.210938 205.695312 186.210938 206.28125 C 186.222656 206.957031 186.773438 207.507812 187.449219 207.507812 C 187.457031 207.507812 187.457031 207.507812 187.46875 207.507812 C 188.144531 207.5 188.691406 206.9375 188.683594 206.253906 C 188.671875 205.53125 188.441406 203.949219 187.996094 200.976562 C 187.175781 195.472656 185.835938 186.421875 185.875 179.933594 C 192.929688 176.847656 202.039062 171.480469 211.160156 165.042969 C 222.386719 172.996094 234.921875 186.488281 236.921875 195.859375 C 237.703125 199.507812 233.679688 202.046875 230.445312 204.082031 Z M 153.28125 85.261719 C 159.160156 77.773438 168.078125 73.527344 179.804688 72.675781 C 181.65625 72.53125 183.453125 72.464844 185.199219 72.464844 C 198.625 72.464844 208.972656 76.488281 216.027344 84.441406 C 225.445312 95.078125 228.554688 112.867188 224.539062 133.238281 C 222.773438 142.140625 219.714844 152.570312 210.351562 162.589844 C 201.625 168.796875 192.890625 174.019531 185.972656 177.183594 C 186.011719 176.777344 186.046875 176.382812 186.105469 176.042969 C 186.203125 175.371094 185.738281 174.742188 185.0625 174.636719 C 184.398438 174.53125 183.761719 174.992188 183.65625 175.667969 C 183.539062 176.421875 183.480469 177.308594 183.433594 178.304688 C 179.570312 179.90625 177.921875 180.109375 177.601562 180.128906 C 176.472656 179.90625 174.640625 179.257812 172.226562 177.6875 C 172.574219 177.078125 172.804688 176.796875 172.882812 176.730469 C 173.367188 176.246094 173.367188 175.457031 172.882812 174.972656 C 172.402344 174.5 171.621094 174.5 171.136719 174.984375 C 170.847656 175.273438 170.527344 175.726562 170.210938 176.257812 C 168.097656 174.644531 165.914062 172.589844 163.675781 170.050781 C 163.386719 169.742188 163.105469 169.433594 162.796875 169.078125 C 153.601562 158.710938 149.238281 148.546875 146.121094 130.238281 C 144.613281 121.386719 142.296875 99.296875 153.28125 85.261719 Z M 239.335938 195.339844 C 237.152344 185.125 224.375 171.488281 213.003906 163.324219 C 222.117188 153.152344 225.183594 142.679688 226.960938 133.722656 C 231.121094 112.585938 227.8125 94.027344 217.871094 82.800781 C 209.367188 73.199219 196.5 68.980469 179.628906 70.207031 C 167.171875 71.121094 157.652344 75.667969 151.339844 83.738281 C 139.742188 98.542969 142.125 121.476562 143.6875 130.644531 C 146.882812 149.464844 151.398438 159.945312 160.925781 170.6875 C 151.640625 177.039062 142.722656 187.289062 137.984375 197.238281 C 134.722656 204.074219 137.425781 207.980469 140.269531 210.058594 C 147.742188 215.5 160.925781 218.25 179.464844 218.25 C 205.738281 218.25 224.21875 210.953125 231.003906 206.640625 L 231.757812 206.167969 C 235.234375 203.984375 240.484375 200.683594 239.335938 195.339844"/></g><path d="M 194.957031 128.617188 C 194.957031 129.273438 194.453125 129.773438 193.796875 129.773438 L 181.269531 129.773438 C 180.613281 129.773438 180.101562 129.265625 180.101562 128.617188 L 180.101562 121.8125 C 180.101562 121.496094 180.230469 121.195312 180.441406 120.984375 C 180.652344 120.78125 180.960938 120.65625 181.269531 120.65625 L 193.796875 120.65625 C 194.453125 120.65625 194.957031 121.15625 194.957031 121.8125 Z M 168.800781 128.617188 C 168.800781 129.273438 168.300781 129.773438 167.632812 129.773438 L 155.113281 129.773438 C 154.457031 129.773438 153.957031 129.265625 153.957031 128.617188 L 153.957031 121.8125 C 153.957031 121.496094 154.074219 121.195312 154.285156 120.984375 C 154.488281 120.78125 154.796875 120.65625 155.113281 120.65625 L 167.632812 120.65625 C 168.300781 120.65625 168.800781 121.15625 168.800781 121.8125 Z M 203.863281 122.828125 L 197.425781 123.53125 L 197.425781 121.8125 C 197.425781 119.777344 195.824219 118.183594 193.796875 118.183594 L 181.269531 118.183594 C 180.304688 118.183594 179.359375 118.570312 178.695312 119.234375 C 178.007812 119.921875 177.632812 120.839844 177.632812 121.8125 L 177.632812 124.84375 L 171.273438 124.84375 L 171.273438 121.8125 C 171.273438 119.777344 169.667969 118.183594 167.632812 118.183594 L 155.113281 118.183594 C 154.148438 118.183594 153.214844 118.570312 152.539062 119.234375 C 151.851562 119.921875 151.484375 120.839844 151.484375 121.8125 L 151.484375 128.617188 C 151.484375 130.613281 153.109375 132.246094 155.113281 132.246094 L 167.632812 132.246094 C 169.667969 132.246094 171.273438 130.652344 171.273438 128.617188 L 171.273438 127.3125 L 177.632812 127.3125 L 177.632812 128.617188 C 177.632812 130.613281 179.261719 132.246094 181.269531 132.246094 L 193.796875 132.246094 C 195.824219 132.246094 197.425781 130.652344 197.425781 128.617188 L 197.425781 126.019531 L 204.136719 125.289062 C 204.8125 125.210938 205.304688 124.59375 205.226562 123.917969 C 205.148438 123.242188 204.539062 122.738281 203.863281 122.828125"/><g fill="#FC0"><g><g><path d="M 8.066406 -7.648438 C 5.746094 -7.941406 4.550781 -8.121094 4.550781 -9.0625 C 4.550781 -10.097656 6.179688 -10.605469 8.085938 -10.621094 C 9.753906 -10.660156 11.675781 -10.332031 12.816406 -9.679688 L 13.324219 -12.199219 C 11.492188 -12.816406 9.625 -13.125 7.941406 -13.125 C 4.113281 -13.105469 1.324219 -11.566406 1.324219 -8.808594 C 1.324219 -6.289062 3.808594 -5.945312 7.050781 -5.546875 C 9.117188 -5.3125 10.585938 -5.128906 10.585938 -3.988281 C 10.585938 -2.753906 9.027344 -2.394531 6.671875 -2.464844 C 5.019531 -2.539062 3.246094 -2.9375 1.792969 -3.335938 L 1.757812 -0.796875 C 3.226562 -0.234375 5.058594 0.199219 6.726562 0.234375 C 10.785156 0.289062 13.796875 -1.125 13.796875 -4.296875 C 13.796875 -6.851562 11.074219 -7.269531 8.066406 -7.648438 Z M 8.066406 -7.648438" transform="translate(63.094 235.193)"/></g></g></g><g fill="#FC0"><g><g><path d="M 14.195312 -12.6875 L 10.984375 -12.6875 L 10.984375 -7.6875 L 4.914062 -7.6875 L 4.914062 -12.6875 L 1.703125 -12.6875 L 1.703125 0 L 4.914062 0 L 4.914062 -5.292969 L 10.984375 -5.292969 L 10.984375 0 L 14.195312 0 Z M 14.195312 -12.6875" transform="translate(78.131 235.193)"/></g></g></g><g fill="#FC0"><g><g><path d="M 8.046875 0.164062 C 12.109375 0.164062 14.828125 -2.554688 14.828125 -6.632812 C 14.828125 -10.421875 12.109375 -12.960938 8.046875 -12.960938 C 3.96875 -12.960938 1.25 -10.40625 1.25 -6.582031 C 1.25 -2.539062 3.96875 0.164062 8.046875 0.164062 Z M 8.046875 -2.339844 C 5.890625 -2.339844 4.460938 -3.988281 4.460938 -6.433594 C 4.460938 -8.863281 5.890625 -10.476562 8.046875 -10.476562 C 10.167969 -10.476562 11.601562 -8.882812 11.601562 -6.488281 C 11.601562 -4.007812 10.167969 -2.339844 8.046875 -2.339844 Z M 8.046875 -2.339844" transform="translate(94.02 235.193)"/></g></g></g><g fill="#FC0"><g><g><path d="M 7.703125 0.164062 C 11.457031 0.164062 13.941406 -1.847656 13.941406 -4.839844 L 13.941406 -12.6875 L 10.730469 -12.6875 L 10.730469 -5.472656 C 10.730469 -3.589844 9.515625 -2.339844 7.703125 -2.339844 C 5.910156 -2.339844 4.695312 -3.589844 4.695312 -5.472656 L 4.695312 -12.6875 L 1.46875 -12.6875 L 1.46875 -4.839844 C 1.46875 -1.847656 3.96875 0.164062 7.703125 0.164062 Z M 7.703125 0.164062" transform="translate(110.072 235.193)"/></g></g></g><g fill="#FC0"><g><g><path d="M 11.476562 -5.855469 L 11.476562 -5.980469 C 12.925781 -6.144531 13.976562 -7.542969 13.976562 -9.515625 C 13.976562 -11.492188 12.089844 -12.6875 9.261719 -12.6875 L 1.703125 -12.6875 L 1.703125 0 L 4.914062 0 L 4.914062 -4.675781 L 8.339844 -4.675781 C 9.808594 -4.675781 10.785156 -3.878906 10.785156 -2.71875 L 10.859375 0 L 14.046875 0 L 14.046875 -3.207031 C 14.046875 -4.660156 12.980469 -5.710938 11.476562 -5.855469 Z M 8.863281 -7.070312 L 4.914062 -7.070312 L 4.914062 -10.296875 L 8.71875 -10.296875 C 9.953125 -10.296875 10.769531 -9.789062 10.769531 -8.828125 C 10.769531 -7.757812 10.007812 -7.070312 8.863281 -7.070312 Z M 8.863281 -7.070312" transform="translate(125.49 235.193)"/></g></g></g><g fill="#FC0"><g><g><path d="M 14.085938 -12.6875 L 10.640625 -12.707031 L 7.214844 -5.820312 L 7.070312 -5.820312 L 3.605469 -12.6875 L 0.164062 -12.6875 L 5.511719 -3.40625 L 5.527344 0 L 8.738281 0 L 8.738281 -3.40625 Z M 14.085938 -12.6875" transform="translate(140.799 235.193)"/></g></g></g><g fill="#FC0"><g><g><path d="M 14.648438 0 L 9.863281 -12.6875 L 4.984375 -12.6875 L 0.179688 0 L 3.535156 0 L 4.515625 -2.71875 L 10.316406 -2.71875 L 11.292969 0 Z M 9.570312 -5.003906 L 5.257812 -5.003906 L 7.195312 -10.585938 L 7.613281 -10.585938 Z M 9.570312 -5.003906" transform="translate(155.04 235.193)"/></g></g></g><g fill="#FC0"><g><g><path d="M 1.703125 0 L 4.914062 0 L 4.875 -8.628906 L 5.058594 -8.628906 L 8.5 0 L 10.804688 0 L 14.210938 -8.628906 L 14.394531 -8.628906 L 14.375 0 L 17.601562 0 L 17.601562 -12.6875 L 13.59375 -12.6875 L 9.753906 -3.5 L 9.570312 -3.5 L 5.710938 -12.707031 L 1.703125 -12.707031 Z M 1.703125 0" transform="translate(174.841 235.193)"/></g></g></g><g fill="#FC0"><g><g><path d="M 14.648438 0 L 9.863281 -12.6875 L 4.984375 -12.6875 L 0.179688 0 L 3.535156 0 L 4.515625 -2.71875 L 10.316406 -2.71875 L 11.292969 0 Z M 9.570312 -5.003906 L 5.257812 -5.003906 L 7.195312 -10.585938 L 7.613281 -10.585938 Z M 9.570312 -5.003906" transform="translate(194.136 235.193)"/></g></g></g><g fill="#FC0"><g><g><path d="M 1.703125 -12.6875 L 1.703125 0 L 4.914062 0 L 4.914062 -5.238281 L 9.789062 0 L 13.847656 0 L 7.632812 -6.433594 L 13.648438 -12.6875 L 10.113281 -12.6875 L 4.914062 -7.632812 L 4.914062 -12.6875 Z M 1.703125 -12.6875" transform="translate(208.956 235.193)"/></g></g></g><g fill="#FC0"><g><g><path d="M 4.914062 -10.1875 L 11.945312 -10.1875 L 11.945312 -12.6875 L 1.703125 -12.6875 L 1.703125 0 L 11.945312 0 L 11.945312 -2.5 L 4.914062 -2.5 L 4.914062 -5.273438 L 11.582031 -5.273438 L 11.582031 -7.667969 L 4.914062 -7.667969 Z M 4.914062 -10.1875" transform="translate(223.088 235.193)"/></g></g></g><g fill="#FC0"><g><g><path d="M 11.476562 -5.855469 L 11.476562 -5.980469 C 12.925781 -6.144531 13.976562 -7.542969 13.976562 -9.515625 C 13.976562 -11.492188 12.089844 -12.6875 9.261719 -12.6875 L 1.703125 -12.6875 L 1.703125 0 L 4.914062 0 L 4.914062 -4.675781 L 8.339844 -4.675781 C 9.808594 -4.675781 10.785156 -3.878906 10.785156 -2.71875 L 10.859375 0 L 14.046875 0 L 14.046875 -3.207031 C 14.046875 -4.660156 12.980469 -5.710938 11.476562 -5.855469 Z M 8.863281 -7.070312 L 4.914062 -7.070312 L 4.914062 -10.296875 L 8.71875 -10.296875 C 9.953125 -10.296875 10.769531 -9.789062 10.769531 -8.828125 C 10.769531 -7.757812 10.007812 -7.070312 8.863281 -7.070312 Z M 8.863281 -7.070312" transform="translate(236.114 235.193)"/></g></g></g><g fill="#FC0"><g><g><path d="M 11.945312 -2.5 L 4.914062 -2.5 L 4.914062 -12.6875 L 1.703125 -12.6875 L 1.703125 0 L 11.945312 0 Z M 11.945312 -2.5" transform="translate(256.405 235.193)"/></g></g></g><g fill="#FC0"><g><g><path d="M 14.648438 0 L 9.863281 -12.6875 L 4.984375 -12.6875 L 0.179688 0 L 3.535156 0 L 4.515625 -2.71875 L 10.316406 -2.71875 L 11.292969 0 Z M 9.570312 -5.003906 L 5.257812 -5.003906 L 7.195312 -10.585938 L 7.613281 -10.585938 Z M 9.570312 -5.003906" transform="translate(268.924 235.193)"/></g></g></g><g fill="#FC0"><g><g><path d="M 11.382812 -6.453125 L 11.382812 -6.597656 C 12.835938 -6.742188 13.867188 -7.941406 13.867188 -9.554688 C 13.867188 -11.382812 12.035156 -12.6875 9.261719 -12.6875 L 1.703125 -12.6875 L 1.703125 0 L 9.335938 0 C 12.164062 0 14.046875 -1.46875 14.046875 -3.660156 C 14.046875 -5.183594 12.941406 -6.308594 11.382812 -6.453125 Z M 10.660156 -9.0625 C 10.660156 -8.15625 9.953125 -7.558594 8.917969 -7.558594 L 4.914062 -7.558594 L 4.914062 -10.296875 L 8.808594 -10.296875 C 9.914062 -10.296875 10.660156 -9.878906 10.660156 -9.0625 Z M 10.839844 -3.988281 C 10.839844 -3.046875 10.097656 -2.394531 8.992188 -2.394531 L 4.914062 -2.394531 L 4.914062 -5.367188 L 9.101562 -5.367188 C 10.132812 -5.367188 10.839844 -4.820312 10.839844 -3.988281 Z M 10.839844 -3.988281" transform="translate(283.744 235.193)"/></g></g></g></svg>